<svg xmlns="http://www.w3.org/2000/svg" xmlns:xlink="http://www.w3.org/1999/xlink" viewBox="0 0 3261.69 2858.9"><defs><style>.cls-1,.cls-10,.cls-15,.cls-17,.cls-2,.cls-20,.cls-21,.cls-22,.cls-23,.cls-25,.cls-27,.cls-28,.cls-3,.cls-30,.cls-33,.cls-4,.cls-6,.cls-7,.cls-9{opacity:0.27;}.cls-1,.cls-10,.cls-11,.cls-14,.cls-15,.cls-16,.cls-17,.cls-18,.cls-19,.cls-2,.cls-20,.cls-21,.cls-22,.cls-23,.cls-24,.cls-25,.cls-26,.cls-27,.cls-28,.cls-29,.cls-3,.cls-30,.cls-31,.cls-33,.cls-36,.cls-37,.cls-38,.cls-4,.cls-6,.cls-7,.cls-8,.cls-9{isolation:isolate;}.cls-1{fill:url(#未命名的渐变_17);}.cls-2{fill:url(#未命名的渐变_16);}.cls-3{fill:url(#未命名的渐变_15);}.cls-4{fill:url(#未命名的渐变_4);}.cls-5{fill:#fff;}.cls-6{fill:url(#未命名的渐变_14);}.cls-7{fill:url(#未命名的渐变_4-2);}.cls-8{opacity:0.33;fill:url(#未命名的渐变_13);}.cls-9{fill:url(#未命名的渐变_12);}.cls-10{fill:url(#未命名的渐变_11);}.cls-11,.cls-36{opacity:0.66;}.cls-11{fill:url(#未命名的渐变_7);}.cls-12{fill:url(#未命名的渐变_10);}.cls-13{fill:url(#未命名的渐变_9);}.cls-14,.cls-31{opacity:0.25;}.cls-14{fill:url(#未命名的渐变_8);}.cls-15{fill:url(#未命名的渐变_4-3);}.cls-16{opacity:0.18;fill:url(#未命名的渐变_4-4);}.cls-17{fill:url(#未命名的渐变_4-5);}.cls-18{opacity:0.39;fill:url(#未命名的渐变_6);}.cls-19{opacity:0.31;fill:url(#未命名的渐变_6-2);}.cls-20{fill:url(#未命名的渐变_5);}.cls-21{fill:url(#未命名的渐变_4-6);}.cls-22{fill:url(#未命名的渐变_5-2);}.cls-23{fill:url(#未命名的渐变_7-2);}.cls-24,.cls-26,.cls-29{opacity:0.45;}.cls-24{fill:url(#未命名的渐变_7-3);}.cls-25{fill:url(#未命名的渐变_4-7);}.cls-26{fill:url(#未命名的渐变_2);}.cls-27{fill:url(#未命名的渐变_3);}.cls-28{fill:url(#未命名的渐变_4-8);}.cls-29{fill:url(#未命名的渐变_2-2);}.cls-30{fill:url(#未命名的渐变_3-2);}.cls-31{fill:url(#未命名的渐变_7-4);}.cls-32{fill:url(#未命名的渐变_22);}.cls-33{fill:url(#未命名的渐变_10-2);}.cls-34{fill:url(#未命名的渐变_21);}.cls-35{fill:url(#未命名的渐变_20);}.cls-36{fill:url(#未命名的渐变_7-5);}.cls-37{opacity:0.54;fill:url(#未命名的渐变_19);}.cls-38{opacity:0.24;fill:url(#未命名的渐变_18);}</style><linearGradient id="未命名的渐变_17" x1="1986.59" y1="128.71" x2="2604.64" y2="128.71" gradientTransform="matrix(1, 0, 0, -1, 0, 1958)" gradientUnits="userSpaceOnUse"><stop offset="0" stop-color="#abc5e7"/><stop offset="0.25" stop-color="#a9c4e7" stop-opacity="0.99"/><stop offset="0.41" stop-color="#a3c2e8" stop-opacity="0.95"/><stop offset="0.54" stop-color="#99bee9" stop-opacity="0.89"/><stop offset="0.66" stop-color="#8bb8ea" stop-opacity="0.79"/><stop offset="0.77" stop-color="#79b1ec" stop-opacity="0.68"/><stop offset="0.87" stop-color="#62a8ee" stop-opacity="0.53"/><stop offset="0.97" stop-color="#489ef0" stop-opacity="0.36"/><stop offset="1" stop-color="#3f9af1" stop-opacity="0.3"/></linearGradient><linearGradient id="未命名的渐变_16" x1="1986.59" y1="128.71" x2="2604.98" y2="128.71" gradientTransform="matrix(1, 0, 0, -1, 0, 1958)" gradientUnits="userSpaceOnUse"><stop offset="0" stop-color="#7ffdff" stop-opacity="0.87"/><stop offset="0.02" stop-color="#7cf7fc" stop-opacity="0.78"/><stop offset="0.07" stop-color="#76edf8" stop-opacity="0.61"/><stop offset="0.12" stop-color="#71e3f4" stop-opacity="0.47"/><stop offset="0.17" stop-color="#6cdbf0" stop-opacity="0.34"/><stop offset="0.23" stop-color="#68d4ed" stop-opacity="0.23"/><stop offset="0.3" stop-color="#65ceeb" stop-opacity="0.15"/><stop offset="0.38" stop-color="#63cae9" stop-opacity="0.08"/><stop offset="0.48" stop-color="#61c7e8" stop-opacity="0.03"/><stop offset="0.62" stop-color="#60c5e7" stop-opacity="0.01"/><stop offset="1" stop-color="#60c5e7" stop-opacity="0"/></linearGradient><linearGradient id="未命名的渐变_15" x1="1232" y1="-253.59" x2="2008.6" y2="-253.59" gradientTransform="matrix(1, 0, 0, -1, 0, 1958)" gradientUnits="userSpaceOnUse"><stop offset="0" stop-color="#abc5e7"/><stop offset="0.31" stop-color="#aec7e8"/><stop offset="0.51" stop-color="#b6cdea"/><stop offset="0.67" stop-color="#c5d7ee"/><stop offset="0.82" stop-color="#dae5f4"/><stop offset="0.95" stop-color="#f4f8fc"/><stop offset="1" stop-color="#fff"/></linearGradient><linearGradient id="未命名的渐变_4" x1="2131.74" y1="544.49" x2="1412.13" y2="-600.58" gradientTransform="matrix(1, 0, 0, -1, 0, 1958)" gradientUnits="userSpaceOnUse"><stop offset="0" stop-color="#63a1e7" stop-opacity="0.8"/><stop offset="0.64" stop-color="#2078e8" stop-opacity="0.94"/><stop offset="1" stop-color="#0064e9"/></linearGradient><linearGradient id="未命名的渐变_14" x1="2583.7" y1="355.44" x2="1924.34" y2="-536.85" gradientTransform="matrix(1, 0, 0, -1, 0, 1958)" gradientUnits="userSpaceOnUse"><stop offset="0" stop-color="#75cbff" stop-opacity="0.7"/><stop offset="1" stop-color="#5064e9" stop-opacity="0.2"/></linearGradient><linearGradient id="未命名的渐变_4-2" x1="2469.9" y1="426.63" x2="1892.07" y2="-330.98" xlink:href="#未命名的渐变_4"/><linearGradient id="未命名的渐变_13" x1="1738.41" y1="-483.91" x2="2094.4" y2="-362.62" gradientTransform="matrix(1, 0, 0, -1, 0, 1958)" gradientUnits="userSpaceOnUse"><stop offset="0" stop-color="#0064e9"/><stop offset="0" stop-color="#0064e9" stop-opacity="0.3"/><stop offset="1" stop-color="#0064e9"/></linearGradient><linearGradient id="未命名的渐变_12" x1="2583.7" y1="355.44" x2="1924.34" y2="-536.85" gradientTransform="matrix(1, 0, 0, -1, 0, 1958)" gradientUnits="userSpaceOnUse"><stop offset="0" stop-color="#abc5e7"/><stop offset="0.29" stop-color="#a8c3e6"/><stop offset="0.47" stop-color="#a0bce2"/><stop offset="0.62" stop-color="#91afdc"/><stop offset="0.74" stop-color="#7fa0d4"/><stop offset="0.81" stop-color="#7296cf"/><stop offset="0.94" stop-color="#517bc0"/><stop offset="1" stop-color="#3e6bb8"/></linearGradient><linearGradient id="未命名的渐变_11" x1="1839.09" y1="86.81" x2="1612.78" y2="556.01" gradientTransform="matrix(1, 0, 0, -1, 0, 1958)" gradientUnits="userSpaceOnUse"><stop offset="0" stop-color="#0064e9" stop-opacity="0"/><stop offset="0.81" stop-color="#9cc5e7"/><stop offset="1" stop-color="#9cc5e7" stop-opacity="0"/></linearGradient><linearGradient id="未命名的渐变_7" x1="2245.63" y1="1322.01" x2="1791.31" y2="-361.9" gradientTransform="matrix(1, 0, 0, -1, 0, 1958)" gradientUnits="userSpaceOnUse"><stop offset="0" stop-color="#9cc5e7" stop-opacity="0.3"/><stop offset="0.25" stop-color="#9ac3e7" stop-opacity="0.31"/><stop offset="0.41" stop-color="#91bee7" stop-opacity="0.35"/><stop offset="0.54" stop-color="#83b6e7" stop-opacity="0.41"/><stop offset="0.66" stop-color="#70a9e8" stop-opacity="0.5"/><stop offset="0.76" stop-color="#5699e8" stop-opacity="0.61"/><stop offset="0.87" stop-color="#3686e8" stop-opacity="0.76"/><stop offset="0.96" stop-color="#126fe9" stop-opacity="0.92"/><stop offset="1" stop-color="#0064e9"/></linearGradient><linearGradient id="未命名的渐变_10" x1="1805.17" y1="106.32" x2="1578.35" y2="562.96" gradientTransform="matrix(1, 0, 0, -1, 0, 1958)" gradientUnits="userSpaceOnUse"><stop offset="0" stop-color="#fff" stop-opacity="0.2"/><stop offset="0.18" stop-color="#ddeafc" stop-opacity="0.28"/><stop offset="0.53" stop-color="#85b5f4" stop-opacity="0.49"/><stop offset="1" stop-color="#0064e9" stop-opacity="0.8"/></linearGradient><linearGradient id="未命名的渐变_9" x1="2068.51" y1="1385.64" x2="1744.38" y2="184.24" gradientTransform="matrix(1, 0, 0, -1, 0, 1958)" gradientUnits="userSpaceOnUse"><stop offset="0" stop-color="#9cc5e7" stop-opacity="0.1"/><stop offset="0.23" stop-color="#9ac4e7" stop-opacity="0.11"/><stop offset="0.37" stop-color="#94c0e7" stop-opacity="0.15"/><stop offset="0.5" stop-color="#89b9e7" stop-opacity="0.21"/><stop offset="0.6" stop-color="#79afe7" stop-opacity="0.3"/><stop offset="0.7" stop-color="#65a3e8" stop-opacity="0.42"/><stop offset="0.8" stop-color="#4d94e8" stop-opacity="0.56"/><stop offset="0.89" stop-color="#3082e8" stop-opacity="0.73"/><stop offset="0.97" stop-color="#0f6de9" stop-opacity="0.92"/><stop offset="1" stop-color="#0064e9"/></linearGradient><linearGradient id="未命名的渐变_8" x1="2625.74" y1="921.4" x2="1539.01" y2="895.91" gradientTransform="matrix(1, 0, 0, -1, 0, 1958)" gradientUnits="userSpaceOnUse"><stop offset="0" stop-color="#fff" stop-opacity="0"/><stop offset="0.37" stop-color="#fff" stop-opacity="0.01"/><stop offset="0.51" stop-color="#fff" stop-opacity="0.03"/><stop offset="0.6" stop-color="#fff" stop-opacity="0.08"/><stop offset="0.68" stop-color="#fff" stop-opacity="0.15"/><stop offset="0.75" stop-color="#fff" stop-opacity="0.23"/><stop offset="0.8" stop-color="#fff" stop-opacity="0.34"/><stop offset="0.86" stop-color="#fff" stop-opacity="0.47"/><stop offset="0.91" stop-color="#fff" stop-opacity="0.61"/><stop offset="0.95" stop-color="#fff" stop-opacity="0.78"/><stop offset="0.99" stop-color="#fff" stop-opacity="0.96"/><stop offset="1" stop-color="#fff"/></linearGradient><linearGradient id="未命名的渐变_4-3" x1="834.01" y1="308.52" x2="1363.43" y2="308.52" xlink:href="#未命名的渐变_4"/><linearGradient id="未命名的渐变_4-4" x1="791" y1="227.93" x2="1255.02" y2="227.93" xlink:href="#未命名的渐变_4"/><linearGradient id="未命名的渐变_4-5" x1="791" y1="698.1" x2="952.46" y2="698.1" xlink:href="#未命名的渐变_4"/><linearGradient id="未命名的渐变_6" x1="685.36" y1="789.76" x2="1544.72" y2="293.6" gradientTransform="matrix(1, 0, 0, -1, 0, 1958)" gradientUnits="userSpaceOnUse"><stop offset="0" stop-color="#83c5e7" stop-opacity="0.6"/><stop offset="1" stop-color="#0064e9"/></linearGradient><linearGradient id="未命名的渐变_6-2" x1="1896.79" y1="243.87" x2="1645.87" y2="243.87" xlink:href="#未命名的渐变_6"/><linearGradient id="未命名的渐变_5" x1="1112.68" y1="59.08" x2="1252.77" y2="-183.56" gradientTransform="matrix(1, 0, 0, -1, 0, 1958)" gradientUnits="userSpaceOnUse"><stop offset="0" stop-color="#83c5e7" stop-opacity="0.6"/><stop offset="0.47" stop-color="#80c3e7" stop-opacity="0.6"/><stop offset="0.64" stop-color="#75bae7" stop-opacity="0.6"/><stop offset="0.76" stop-color="#61ace8" stop-opacity="0.6"/><stop offset="0.86" stop-color="#4597e8" stop-opacity="0.6"/><stop offset="0.94" stop-color="#217ce9" stop-opacity="0.6"/><stop offset="1" stop-color="#0064e9" stop-opacity="0.6"/></linearGradient><linearGradient id="未命名的渐变_4-6" x1="1508.21" y1="-17.99" x2="1735.41" y2="-411.52" xlink:href="#未命名的渐变_4"/><linearGradient id="未命名的渐变_5-2" x1="2124.32" y1="-375.1" x2="1985.83" y2="-375.1" xlink:href="#未命名的渐变_5"/><linearGradient id="未命名的渐变_7-2" x1="321.7" y1="338.95" x2="2172.53" y2="-203.96" xlink:href="#未命名的渐变_7"/><linearGradient id="未命名的渐变_7-3" x1="2099.37" y1="30.35" x2="562.29" y2="30.35" gradientTransform="matrix(1, 0, 0, -1, 0.05, 1957.39)" xlink:href="#未命名的渐变_7"/><linearGradient id="未命名的渐变_4-7" x1="1217.03" y1="1166.5" x2="860.74" y2="699.36" xlink:href="#未命名的渐变_4"/><linearGradient id="未命名的渐变_2" x1="1083.31" y1="518.79" x2="818.43" y2="777.14" gradientTransform="matrix(1, 0, 0, -1, 0, 1958)" gradientUnits="userSpaceOnUse"><stop offset="0" stop-color="#9cc5e7" stop-opacity="0.1"/><stop offset="0.12" stop-color="#8fbde7" stop-opacity="0.17"/><stop offset="0.35" stop-color="#6ea9e8" stop-opacity="0.36"/><stop offset="0.68" stop-color="#3988e8" stop-opacity="0.67"/><stop offset="1" stop-color="#0064e9"/></linearGradient><linearGradient id="未命名的渐变_3" x1="1166.59" y1="1344.37" x2="1170.22" y2="278.59" gradientTransform="matrix(1, 0, 0, -1, 0, 1958)" gradientUnits="userSpaceOnUse"><stop offset="0" stop-color="#abc5e7"/><stop offset="0.29" stop-color="#a8c3e6"/><stop offset="0.47" stop-color="#a0bce2"/><stop offset="0.62" stop-color="#91b0dc"/><stop offset="0.75" stop-color="#7c9fd3"/><stop offset="0.88" stop-color="#6288c7"/><stop offset="0.99" stop-color="#416eb9"/><stop offset="1" stop-color="#3e6bb8"/></linearGradient><linearGradient id="未命名的渐变_4-8" x1="18273.88" y1="8805.16" x2="17923.19" y2="8345.37" gradientTransform="matrix(-0.53, -0.85, -0.85, 0.53, 18522.8, 11579.79)" xlink:href="#未命名的渐变_4"/><linearGradient id="未命名的渐变_2-2" x1="2066.55" y1="992.12" x2="1834.21" y2="1218.72" xlink:href="#未命名的渐变_2"/><linearGradient id="未命名的渐变_3-2" x1="2069.17" y1="1092.67" x2="1027.72" y2="1111.06" xlink:href="#未命名的渐变_3"/><linearGradient id="未命名的渐变_7-4" x1="2389.7" y1="1489.57" x2="1600.64" y2="370.22" xlink:href="#未命名的渐变_7"/><linearGradient id="未命名的渐变_22" x1="1078.28" y1="913.12" x2="863.07" y2="605.11" gradientTransform="matrix(1, 0, 0, -1, 0, 1958)" gradientUnits="userSpaceOnUse"><stop offset="0" stop-color="#73b1ff" stop-opacity="0.2"/><stop offset="0.2" stop-color="#70afff" stop-opacity="0.21"/><stop offset="0.37" stop-color="#68aafd" stop-opacity="0.26"/><stop offset="0.52" stop-color="#5ba0fb" stop-opacity="0.33"/><stop offset="0.66" stop-color="#4893f7" stop-opacity="0.43"/><stop offset="0.67" stop-color="#4793f7" stop-opacity="0.43"/><stop offset="0.74" stop-color="#3b8bf5" stop-opacity="0.49"/><stop offset="0.89" stop-color="#1b76ee" stop-opacity="0.66"/><stop offset="1" stop-color="#0064e9" stop-opacity="0.8"/></linearGradient><linearGradient id="未命名的渐变_10-2" x1="1882.9" y1="1177.89" x2="1268.41" y2="1229.27" xlink:href="#未命名的渐变_10"/><linearGradient id="未命名的渐变_21" x1="564.28" y1="504.21" x2="1668.09" y2="504.21" gradientTransform="matrix(1, 0, 0, -1, 0, 1958)" gradientUnits="userSpaceOnUse"><stop offset="0" stop-color="#fff" stop-opacity="0.2"/><stop offset="0.27" stop-color="#d8e7fc" stop-opacity="0.23"/><stop offset="0.68" stop-color="#6ca5f2" stop-opacity="0.32"/><stop offset="1" stop-color="#0064e9" stop-opacity="0.4"/></linearGradient><linearGradient id="未命名的渐变_20" x1="1668.09" y1="504.21" x2="564.28" y2="504.21" gradientTransform="matrix(1, 0, 0, -1, 0, 1958)" gradientUnits="userSpaceOnUse"><stop offset="0" stop-color="#fff" stop-opacity="0"/><stop offset="0.22" stop-color="#fdfdff" stop-opacity="0.01"/><stop offset="0.37" stop-color="#f4f5fe" stop-opacity="0.05"/><stop offset="0.5" stop-color="#e7e9fc" stop-opacity="0.12"/><stop offset="0.62" stop-color="#d4d8f9" stop-opacity="0.21"/><stop offset="0.73" stop-color="#bbc1f6" stop-opacity="0.33"/><stop offset="0.83" stop-color="#9ca5f2" stop-opacity="0.47"/><stop offset="0.93" stop-color="#7885ed" stop-opacity="0.65"/><stop offset="1" stop-color="#5868e9" stop-opacity="0.8"/></linearGradient><linearGradient id="未命名的渐变_7-5" x1="828.93" y1="529.02" x2="2199.68" y2="1555.06" xlink:href="#未命名的渐变_7"/><linearGradient id="未命名的渐变_19" x1="794.1" y1="312.34" x2="2345.63" y2="1946" gradientTransform="matrix(1, 0, 0, -1, 0, 1958)" gradientUnits="userSpaceOnUse"><stop offset="0" stop-color="#7ffdff" stop-opacity="0.87"/><stop offset="0.01" stop-color="#7efcff" stop-opacity="0.85"/><stop offset="0.07" stop-color="#78f0fa" stop-opacity="0.68"/><stop offset="0.13" stop-color="#72e6f5" stop-opacity="0.51"/><stop offset="0.2" stop-color="#6dddf1" stop-opacity="0.38"/><stop offset="0.28" stop-color="#69d6ee" stop-opacity="0.26"/><stop offset="0.36" stop-color="#66d0ec" stop-opacity="0.16"/><stop offset="0.46" stop-color="#63cbe9" stop-opacity="0.09"/><stop offset="0.57" stop-color="#61c7e8" stop-opacity="0.04"/><stop offset="0.71" stop-color="#60c6e7" stop-opacity="0.01"/><stop offset="1" stop-color="#60c5e7" stop-opacity="0"/></linearGradient><linearGradient id="未命名的渐变_18" x1="564" y1="536.97" x2="1659.93" y2="536.97" gradientTransform="matrix(1, 0, 0, -1, 0, 1958)" gradientUnits="userSpaceOnUse"><stop offset="0" stop-color="#fff" stop-opacity="0"/><stop offset="0.1" stop-color="#fff" stop-opacity="0.02"/><stop offset="0.22" stop-color="#fff" stop-opacity="0.09"/><stop offset="0.36" stop-color="#fff" stop-opacity="0.19"/><stop offset="0.51" stop-color="#fff" stop-opacity="0.34"/><stop offset="0.67" stop-color="#fff" stop-opacity="0.52"/><stop offset="0.84" stop-color="#fff" stop-opacity="0.75"/><stop offset="1" stop-color="#fff"/></linearGradient></defs><title>sofa首页-拆解</title><g id="h"><g id="图层_2" data-name="图层 2"><g id="图层_1-2" data-name="图层 1-2"><polygon class="cls-1" points="1986.59 2224.94 2584.49 1386.84 2604.64 1445.33 2008.6 2271.75 1986.59 2224.94"/><polygon class="cls-2" points="1986.59 2224.94 2584.49 1386.84 2604.98 1445.45 2008.6 2271.75 1986.59 2224.94"/><polygon class="cls-3" points="1232 2151.43 1986.05 2224.91 2008.6 2271.75 1253.52 2191.87 1232 2151.43"/><polygon class="cls-4" points="2584.3 1387.16 1986.17 2224.76 1232 2151.43 1831.36 1313 2584.2 1386.94 2584.3 1387.16"/></g></g></g><g id="g"><g id="图层_2-2" data-name="图层 2"><g id="图层_1-2-2" data-name="图层 1-2"><polygon class="cls-5" points="2099.9 2471.64 2686.56 1648.92 2584.62 1386.94 2538.35 1382 1940 2220.27 1940 2220.27 2053.85 2466.68 2099.69 2471.66 2099.76 2471.83 2099.86 2471.68 2099.92 2471.69 2099.9 2471.64"/><polygon class="cls-6" points="1986.33 2224.75 2584.62 1386.94 2686.56 1648.92 2099.76 2471.83 1986.33 2224.75"/><polygon class="cls-7" points="2538.35 1382 2584.62 1386.94 1986.29 2225.07 1940 2220.27 2538.35 1382"/><polygon class="cls-8" points="1940 2220.27 2053.85 2466.68 2099.92 2471.69 1986.24 2225.07 1940 2220.27"/><polygon class="cls-9" points="1986.33 2224.75 2584.62 1386.94 2686.56 1648.92 2099.76 2471.83 1986.33 2224.75"/></g></g></g><g id="f"><g id="图层_2-3" data-name="图层 2"><g id="图层_1-2-3" data-name="图层 1-2"><path class="cls-5" d="M2486,1117.71l-207.23-527.4-.34-.28-40.88-5.94L1610.39,1475H1610l228.23,496,37.34,3.72.15.33Zm-836.56,368-2.07-4.47h0Z"/><polygon class="cls-10" points="1658.19 1466.63 1879.67 1958.81 1872.81 1970.6 1760.45 1725.85 1760.38 1725.69 1648.01 1480.94 1658.19 1466.63"/><polygon class="cls-11" points="2278.77 590.31 2486.01 1117.71 1875.72 1975.08 1761.13 1728.95 1761.06 1728.8 1647.3 1481 2278.77 590.31"/><polygon class="cls-12" points="1610 1474.97 1647.37 1481.2 1875.6 1974.76 1838.23 1971.03 1610 1474.97"/><polygon class="cls-13" points="2237.55 584.08 2278.43 590.03 1647.37 1481.24 1610.21 1475.29 2237.55 584.08"/><polygon class="cls-14" points="2271.74 601.18 2281.21 623.27 1657.48 1503.03 1648.01 1480.94 2271.74 601.18"/></g></g></g><g id="e"><g id="图层_2-4" data-name="图层 2"><g id="图层_1-2-4" data-name="图层 1-2"><polygon class="cls-15" points="834.01 1344.85 951.33 1179.46 1363.43 1966.5 1254.19 2119.5 834.01 1344.85"/><polygon class="cls-16" points="834.84 1344.85 791 1340.63 1216.46 2115.14 1255.02 2119.5 834.84 1344.85"/><polygon class="cls-17" points="952.46 1179.49 905.02 1175 791 1340.63 835.26 1344.81 952.46 1179.49"/></g></g></g><g id="d"><g id="图层_2-5" data-name="图层 2"><g id="图层_1-2-5" data-name="图层 1-2"><polygon class="cls-5" points="2010.55 2194.14 1255.96 2121.63 1144.17 1909.3 1872.79 1977.53 1896.79 1945.22 1668.08 1450.73 1668.08 1450.73 586.72 1351 562 1381.91 562.34 1382.02 562.34 1382.02 562.34 1382.02 562.37 1382.07 562.31 1382.07 986.89 2123.67 1134.43 2381.39 1134.45 2381.39 1134.46 2381.4 2099.42 2472.05 2124.32 2441.38 2010.55 2194.14"/><polygon class="cls-18" points="586.72 1351 562 1381.91 1645.5 1483.66 1668.08 1450.73 586.72 1351"/><polygon class="cls-19" points="1872.79 1977.53 1896.79 1945.22 1668.08 1450.73 1645.87 1483.31 1872.79 1977.53"/><polygon class="cls-20" points="1255.96 2121.63 1233.74 2152.54 1101.57 1905.33 1144.16 1909.5 1255.96 2121.63"/><polygon class="cls-21" points="1985.88 2224.91 2010.55 2194.14 1255.96 2121.63 1233.74 2152.54 1985.88 2224.91"/><polygon class="cls-22" points="2010.55 2194.14 1985.83 2225.04 2099.42 2472.05 2124.32 2441.38 2010.55 2194.14"/><polygon class="cls-23" points="1645.56 1483.44 1758.92 1730.37 1758.99 1730.52 1872.79 1977.53 1101.48 1905.31 1233.67 2152.69 1985.88 2224.91 2099.42 2472.05 1134.46 2381.4 562.31 1382.07 1645.56 1483.44"/><polygon class="cls-24" points="2099.42 2472.05 1985.88 2224.91 1233.66 2152.69 1102.01 1906.28 1101.48 1905.29 1872.79 1977.53 1872.79 1977.53 1872.79 1977.53 1759 1730.55 1758.93 1730.39 1645.59 1483.46 1388.82 1459.42 562.34 1382.02 562.34 1382.02 562.34 1382.02 849.63 1883.89 849.63 1883.89 1134.43 2381.39 2099.42 2472.05"/></g></g></g><g id="c"><g id="图层_2-6" data-name="图层 2"><g id="图层_1-2-6" data-name="图层 1-2"><polygon class="cls-25" points="1246.52 705 1291.25 705.1 931.62 1213.55 887 1213.76 1246.52 705"/><polygon class="cls-26" points="887 1213.76 1012.54 1448.2 1056.94 1448.2 931.73 1213.36 887 1213.76"/><polygon class="cls-27" points="931.73 1213.36 1291.21 705.01 1404.64 952.09 1057.31 1448.2 931.73 1213.36"/></g></g></g><g id="b"><g id="图层_2-7" data-name="图层 2"><g id="图层_1-2-7" data-name="图层 1-2"><polygon class="cls-28" points="1291 704.73 1314.86 672 1930.84 730.8 1906.95 763.58 1291 704.73"/><polygon class="cls-29" points="1907.38 763.28 2007.03 1011.08 2030.56 978.51 1931.07 730.5 1907.38 763.28"/><polygon class="cls-30" points="1291 704.73 1907.35 763.63 2006.71 1011.08 1404.58 951.7 1291 704.73"/></g></g></g><g id="a"><g id="图层_2-8" data-name="图层 2"><g id="图层_1-2-8" data-name="图层 1-2"><path class="cls-5" d="M2276.45,593.3l-.1.15-.09-.21L1193.29,492,576.93,1361.19l-.57,0-9.57,14.36-2.66,3.75.06.15-.19.28,4,.38-3.74-.35,20.61,47.11,1083.2,101,629-887.45ZM982.29,1213l329.23-458.1,565.75,50.49-327.76,462.54Z"/><polygon class="cls-31" points="2276.45 593.3 2297.07 640.42 1668.09 1527.87 1647.48 1480.75 2276.45 593.3"/><polygon class="cls-32" points="1290.91 704.85 1311.52 754.91 982.29 1213 932.23 1210.06 1290.91 704.85"/><polygon class="cls-33" points="1311.52 754.91 1877.27 805.4 1907.66 762.12 1290.91 704.85 1311.52 754.91"/><polygon class="cls-34" points="564.28 1379.71 1647.48 1480.75 1668.09 1527.87 584.89 1426.82 564.28 1379.71"/><polygon class="cls-35" points="564.28 1379.71 1647.48 1480.75 1668.09 1527.87 590.73 1426.82 564.28 1379.71"/><path class="cls-36" d="M1291,704.78l617,57.68-358.49,505.47-617-57.68L1291,704.78M1193.29,492,564.13,1379.25l.1.22,1083,101.24,629.16-887.25-.09-.22Z"/><path class="cls-37" d="M1291,704.78l617,57.68-358.49,505.47-617-57.68L1291,704.78M1193.29,492,564.13,1379.25l.1.22,1083,101.24,629.16-887.25-.09-.22Z"/><polygon class="cls-38" points="564 1379.68 1647.56 1480.92 1659.93 1462.38 576.36 1361.14 564 1379.68"/></g></g></g></svg>